<mxfile host="app.diagrams.net" modified="2024-07-05T07:15:03.217Z" agent="Mozilla/5.0 (Windows NT 10.0; Win64; x64) AppleWebKit/537.36 (KHTML, like Gecko) Chrome/126.0.0.0 Safari/537.36" version="24.6.4" etag="t8YkegWKyiny-M8Zayn4" type="github">
  <diagram name="Page-1" id="YQRVxkTPqUyr_VXzGx80">
    <mxGraphModel>
      <root>
        <mxCell id="0" />
        <mxCell id="1" parent="0" />
      </root>
    </mxGraphModel>
  </diagram>
</mxfile>
